<?xml version="1.0" standalone="no"?>
<!DOCTYPE svg PUBLIC "-//W3C//DTD SVG 20010904//EN"
 "http://www.w3.org/TR/2001/REC-SVG-20010904/DTD/svg10.dtd">
<svg version="1.0" xmlns="http://www.w3.org/2000/svg"
 width="128.000000pt" height="51.000000pt" viewBox="0 0 128.000000 51.000000"
 preserveAspectRatio="xMidYMid meet">

<g transform="translate(0.000000,51.000000) scale(0.100000,-0.100000)"
fill="#000000" stroke="none">
<path d="M1013 503 c-19 -7 -16 -40 4 -47 21 -8 36 6 31 30 -3 19 -16 25 -35
17z"/>
<path d="M10 374 c0 -124 0 -125 23 -122 18 2 23 10 25 46 4 58 31 57 66 -3
20 -34 33 -45 51 -45 31 0 31 3 0 56 -20 34 -22 43 -10 47 7 3 21 17 30 31 14
21 15 31 6 59 -15 43 -45 57 -126 57 l-65 0 0 -126z m124 73 c10 -7 17 -22 15
-33 -3 -15 -14 -20 -47 -22 l-42 -3 0 35 c0 33 3 36 28 36 16 0 36 -6 46 -13z"/>
<path d="M890 385 c0 -106 2 -115 21 -125 28 -15 70 -5 63 15 -4 8 -12 15 -20
15 -11 0 -14 22 -14 105 l0 105 -25 0 -25 0 0 -115z"/>
<path d="M267 419 c-11 -6 -25 -26 -33 -45 -22 -51 1 -99 54 -115 45 -13 97
-2 97 22 0 10 -11 13 -43 11 -40 -4 -72 9 -72 29 0 5 32 9 70 9 64 0 70 2 70
21 0 11 -13 34 -29 50 -31 31 -79 38 -114 18z m74 -29 c32 -18 21 -30 -28 -30
-45 0 -46 0 -28 20 21 23 29 24 56 10z"/>
<path d="M467 418 c-38 -30 -43 -102 -9 -140 18 -21 82 -24 100 -6 9 9 12 8
12 -8 0 -11 -5 -25 -12 -32 -15 -15 -74 -16 -83 -2 -7 12 -35 -5 -35 -20 0
-15 71 -32 104 -26 59 11 71 35 71 145 0 92 -1 96 -22 99 -13 2 -23 -2 -23 -8
0 -7 -6 -8 -19 0 -27 14 -64 13 -84 -2z m87 -34 c25 -9 21 -71 -5 -84 -43 -24
-92 43 -57 78 13 13 37 15 62 6z"/>
<path d="M682 407 c-33 -35 -31 -109 4 -136 29 -23 55 -26 84 -11 13 7 21 7
25 0 3 -5 15 -10 26 -10 17 0 19 8 19 90 0 80 -2 90 -18 90 -10 0 -23 -5 -29
-11 -8 -8 -13 -8 -17 0 -13 20 -71 12 -94 -12z m106 -64 c3 -38 1 -43 -23 -49
-28 -7 -65 18 -65 43 0 34 21 54 53 51 30 -3 32 -6 35 -45z"/>
<path d="M1004 417 c-3 -8 -4 -47 -2 -88 3 -68 5 -74 26 -77 21 -3 22 -1 22
87 0 85 -1 91 -20 91 -11 0 -23 -6 -26 -13z"/>
<path d="M1115 405 c-29 -28 -34 -88 -10 -122 19 -27 67 -38 96 -22 17 9 24 9
27 0 2 -6 12 -11 23 -11 17 0 19 8 19 90 0 82 -2 90 -19 90 -11 0 -21 -6 -24
-12 -4 -10 -7 -10 -18 0 -22 20 -68 14 -94 -13z m103 -27 c15 -15 15 -61 0
-76 -20 -20 -56 -14 -74 13 -15 23 -15 27 0 50 18 27 54 33 74 13z"/>
<path d="M0 50 l0 -50 38 1 c36 1 36 2 7 8 -36 8 -39 32 -5 42 25 7 25 7 -3 8
-37 1 -31 24 9 32 27 6 27 7 -8 8 l-38 1 0 -50z"/>
<path d="M911 86 c-13 -15 -10 -18 33 -41 24 -13 18 -30 -11 -30 -12 1 -19 -3
-17 -7 9 -14 41 -9 55 8 11 14 10 18 -6 30 -10 8 -25 14 -32 14 -7 0 -13 7
-13 16 0 12 7 15 25 12 13 -3 22 -1 19 3 -8 14 -40 10 -53 -5z"/>
<path d="M1008 78 c-8 -23 6 -71 22 -75 12 -4 13 -3 1 5 -8 6 -12 20 -9 35 6
29 -6 58 -14 35z"/>
<path d="M104 56 c-15 -39 22 -74 49 -47 9 9 5 11 -13 9 -19 -2 -25 2 -25 17
0 15 6 19 23 18 13 -2 21 1 17 7 -9 15 -45 12 -51 -4z"/>
<path d="M190 56 c-27 -33 18 -72 48 -42 13 13 14 20 6 34 -15 23 -38 26 -54
8z m44 -5 c9 -14 -4 -41 -19 -41 -15 0 -28 27 -19 41 3 5 11 9 19 9 8 0 16 -4
19 -9z"/>
<path d="M276 54 c-9 -24 -7 -44 4 -44 6 0 10 12 10 26 0 35 23 26 31 -12 l7
-29 1 33 c1 21 6 32 15 32 9 0 17 -13 19 -32 l5 -33 -2 35 c-1 34 -2 35 -42
37 -30 2 -44 -2 -48 -13z"/>
<path d="M401 33 c1 -37 2 -37 8 -8 3 17 13 30 21 30 8 0 18 -13 21 -30 l7
-30 1 33 c1 21 6 32 15 32 9 0 17 -13 19 -32 l5 -33 -2 35 c-1 35 -2 35 -48
38 l-48 2 1 -37z"/>
<path d="M540 56 c-23 -28 17 -73 42 -48 8 8 5 9 -11 5 -12 -3 -21 -1 -21 6 0
6 9 11 21 11 14 0 19 5 17 17 -4 23 -31 28 -48 9z m40 -6 c0 -5 -9 -10 -21
-10 -11 0 -17 5 -14 10 3 6 13 10 21 10 8 0 14 -4 14 -10z"/>
<path d="M621 33 c1 -28 3 -31 6 -13 3 14 10 31 15 38 8 9 6 12 -6 12 -12 0
-16 -9 -15 -37z"/>
<path d="M681 51 c-7 -13 -6 -24 3 -37 12 -15 18 -16 37 -7 l24 12 -25 -2
c-19 -2 -25 3 -25 18 0 15 6 19 23 18 13 -2 21 1 17 7 -10 17 -44 11 -54 -9z"/>
<path d="M770 56 c-24 -30 17 -73 43 -46 9 10 7 11 -10 6 -12 -4 -24 -2 -28 4
-4 6 4 10 20 10 20 0 26 4 23 17 -4 23 -31 28 -48 9z m40 -6 c0 -5 -9 -10 -21
-10 -11 0 -17 5 -14 10 3 6 13 10 21 10 8 0 14 -4 14 -10z"/>
<path d="M1070 56 c-27 -33 18 -72 48 -42 13 13 14 20 6 34 -15 23 -38 26 -54
8z m43 -10 c8 -20 -20 -43 -35 -28 -14 14 -3 42 16 42 7 0 16 -6 19 -14z"/>
<path d="M1156 54 c-9 -24 -7 -44 4 -44 6 0 10 11 10 24 0 13 6 27 13 29 7 4
6 6 -4 6 -9 1 -20 -6 -23 -15z"/>
<path d="M1214 56 c-13 -35 25 -71 49 -46 9 10 7 11 -10 6 -12 -4 -24 -2 -28
4 -4 6 4 10 20 10 20 0 26 4 23 18 -4 22 -46 29 -54 8z m41 -6 c3 -5 -3 -10
-15 -10 -12 0 -18 5 -15 10 3 6 10 10 15 10 5 0 12 -4 15 -10z"/>
</g>
</svg>
